# xmcd
#
# Track frame offsets: 
#        150
#        17370
#        37692
#        62235
#        88635
#        110226
#
# Disc length: 1916 seconds
#
# Revision: 0
# Processed by: cddbd v1.5.1PL0 Copyright (c) Steve Scherf et al.
# Submitted via: ExactAudioCopy v0.95b3
#
DISCID=41077a06
DTITLE=B.B de Vouex (Scotty Wright) - Bluevolution Disc B
DYEAR=1900
DGENRE=Blues
TTITLE0=With you I'm born again
TTITLE1=Come rain or shine
TTITLE2=Sometimes when we touch
TTITLE3=It might be you
TTITLE4=Windmill of your mind
TTITLE5=Killing me softly (Karaoke)
EXTD=
EXTT0=
EXTT1=
EXTT2=
EXTT3=
EXTT4=
EXTT5=
PLAYORDER=
